# xmcd
#
# Track frame offsets: 
#        182
#        13895
#        28422
#        39265
#        56912
#        70422
#        81845
#        94762
#        107655
#        123015
#        141150
#        165265
#        184995
#        196502
#        209050
#        230860
#        243547
#        262155
#        286932
#        302227
#        317992
#        330090
#        338440
#
# Disc length: 4694 seconds
#
# Revision: 1
# Processed by: cddbd v1.5.2PL0 Copyright (c) Steve Scherf et al.
# Submitted via: ExactAudioCopyFreeDBPlugin 1.0
#
DISCID=51125417
DTITLE=Louis Armstrong - Ain't Misbehavin
DYEAR=1900
DGENRE=Blues
TTITLE0=Ain't Misbehavin
TTITLE1=When the Saint's go marching in
TTITLE2=Name
TTITLE3=Cabaret
TTITLE4=A Kiss to build a Dream on
TTITLE5=Hello Dolly
TTITLE6=St. Luis Blues
TTITLE7=That's my Desire
TTITLE8=Mack the Knife
TTITLE9=Back Ole Town Blues
TTITLE10=Fly to the Moon
TTITLE11=Indiana
TTITLE12=Tiger Rag
TTITLE13=C'est si bon
TTITLE14=St  James Infirmary
TTITLE15=Jelly Roll  Blues
TTITLE16=Someday you'll be sorry
TTITLE17=Sweethearts on Parade
TTITLE18=Please don't talk about me when I'm gone
TTITLE19=Black and Blue
TTITLE20=Basin Street Blues
TTITLE21=I can't give you anything but love
TTITLE22=On the sunny Site of The Street
EXTD=
EXTT0=
EXTT1=
EXTT2=
EXTT3=
EXTT4=
EXTT5=
EXTT6=
EXTT7=
EXTT8=
EXTT9=
EXTT10=
EXTT11=
EXTT12=
EXTT13=
EXTT14=
EXTT15=
EXTT16=
EXTT17=
EXTT18=
EXTT19=
EXTT20=
EXTT21=
EXTT22=
PLAYORDER=
